<?xml version="1.0" encoding="UTF-8" standalone="no"?>
<svg
   xmlns:dc="http://purl.org/dc/elements/1.1/"
   xmlns:cc="http://creativecommons.org/ns#"
   xmlns:rdf="http://www.w3.org/1999/02/22-rdf-syntax-ns#"
   xmlns:svg="http://www.w3.org/2000/svg"
   xmlns="http://www.w3.org/2000/svg"
   width="43.962933mm"
   height="52.181881mm"
   viewBox="0 0 43.962933 52.181881"
   version="1.1"
   id="svg8">
  <defs
     id="defs2" />
  <metadata
     id="metadata5">
    <rdf:RDF>
      <cc:Work
         rdf:about="">
        <dc:format>image/svg+xml</dc:format>
        <dc:type
           rdf:resource="http://purl.org/dc/dcmitype/StillImage" />
        <dc:title></dc:title>
      </cc:Work>
    </rdf:RDF>
  </metadata>
  <g
     id="layer1"
     transform="translate(-6.2592853,-7.5943211)">
    <g
       aria-label="karlstatik
büro für 
tragwerks­
planung"
       id="text835"
       style="font-style:normal;font-weight:normal;font-size:10.5833px;line-height:1.25;font-family:sans-serif;letter-spacing:0px;word-spacing:0px;fill:#000000;fill-opacity:1;stroke:none;stroke-width:0.264583">
      <path
         d="m 7.836197,13.341053 v 1.777994 H 6.7567004 V 7.5943211 H 7.836197 V 12.20864 l 1.8944106,-2.08491 h 1.3334954 l -2.0108266,2.106076 2.1060766,2.889241 H 9.8787738 L 8.3018622,12.875388 Z"
         style="font-style:normal;font-variant:normal;font-weight:500;font-stretch:normal;font-family:Mukta;-inkscape-font-specification:'Mukta Medium';stroke-width:0.264583"
         id="path858" />
      <path
         d="m 11.953095,10.568228 q 0.486832,-0.264582 0.931331,-0.391582 0.455082,-0.137583 1.005413,-0.137583 0.423332,0 0.772581,0.09525 0.359832,0.09525 0.613831,0.306916 0.254,0.211666 0.391583,0.571498 0.148166,0.349249 0.148166,0.857247 v 3.249073 H 14.937586 L 14.82117,14.579299 h -0.03175 q -0.296333,0.338665 -0.687915,0.497415 -0.391582,0.148166 -0.86783,0.148166 -0.751415,0 -1.21708,-0.402165 -0.455082,-0.402166 -0.455082,-1.068913 0,-0.412749 0.169333,-0.709082 0.169333,-0.306915 0.476249,-0.507998 0.306915,-0.201083 0.730247,-0.296332 0.423332,-0.105833 0.931331,-0.105833 h 0.846664 v -0.380999 q 0,-0.476249 -0.254,-0.656165 -0.253999,-0.190499 -0.698497,-0.190499 -0.275166,0 -0.624415,0.09525 -0.338666,0.08467 -0.783164,0.328082 z m 2.772825,2.285993 -0.666748,0.01058 q -0.751414,0.02117 -1.05833,0.264583 -0.306916,0.243416 -0.306916,0.571498 0,0.211666 0.0635,0.349249 0.07408,0.137583 0.1905,0.222249 0.116416,0.08467 0.264582,0.127 0.15875,0.03175 0.317499,0.03175 0.328082,0 0.645581,-0.15875 0.328083,-0.169333 0.550332,-0.476248 z"
         style="font-style:normal;font-variant:normal;font-weight:500;font-stretch:normal;font-family:Mukta;-inkscape-font-specification:'Mukta Medium';stroke-width:0.264583"
         id="path860" />
      <path
         d="M 17.117735,15.119047 V 10.12373 h 0.825497 l 0.15875,0.96308 q 0.179916,-0.444499 0.582081,-0.740831 0.402165,-0.306916 0.973664,-0.306916 0.253999,0 0.433915,0.04233 0.190499,0.04233 0.338665,0.116416 l -0.201082,0.910164 q -0.127,-0.0635 -0.296333,-0.105833 -0.158749,-0.04233 -0.370415,-0.04233 -0.582082,0 -0.973664,0.402166 -0.391582,0.391582 -0.391582,1.195913 v 2.561158 z"
         style="font-style:normal;font-variant:normal;font-weight:500;font-stretch:normal;font-family:Mukta;-inkscape-font-specification:'Mukta Medium';stroke-width:0.264583"
         id="path862" />
      <path
         d="M 21.17112,15.119047 V 7.5943211 h 1.068914 v 7.5247259 z"
         style="font-style:normal;font-variant:normal;font-weight:500;font-stretch:normal;font-family:Mukta;-inkscape-font-specification:'Mukta Medium';stroke-width:0.264583"
         id="path864" />
      <path
         d="m 26.547434,11.139727 q -0.338665,-0.15875 -0.634998,-0.22225 -0.285749,-0.07408 -0.571498,-0.07408 -0.444499,0 -0.677331,0.169333 -0.22225,0.158749 -0.22225,0.433915 0,0.211666 0.169333,0.370416 0.169333,0.148166 0.698498,0.296332 l 0.317499,0.09525 q 0.687915,0.211666 1.037163,0.550331 0.359833,0.338666 0.359833,0.910164 0,0.698498 -0.529165,1.132413 -0.529165,0.423332 -1.449912,0.423332 -0.497416,0 -0.931331,-0.09525 -0.423332,-0.08467 -0.761997,-0.243415 l 0.253999,-0.825498 q 0.306916,0.148166 0.656164,0.243416 0.349249,0.09525 0.719665,0.09525 0.455082,0 0.709081,-0.15875 0.253999,-0.158749 0.253999,-0.486831 0,-0.306916 -0.232833,-0.433916 -0.222249,-0.137583 -0.698497,-0.285749 l -0.328083,-0.09525 q -0.666747,-0.222249 -0.99483,-0.560914 -0.317499,-0.338666 -0.317499,-0.888998 0,-0.328082 0.137583,-0.592664 0.137583,-0.264583 0.380999,-0.455082 0.243416,-0.1905 0.582081,-0.296333 0.349249,-0.105833 0.761998,-0.105833 0.391582,0 0.793747,0.07408 0.412749,0.07408 0.761998,0.232833 z"
         style="font-style:normal;font-variant:normal;font-weight:500;font-stretch:normal;font-family:Mukta;-inkscape-font-specification:'Mukta Medium';stroke-width:0.264583"
         id="path866" />
      <path
         d="M 30.823072,10.928061 H 29.40491 v 2.698741 q 0,0.370415 0.169333,0.497415 0.179916,0.127 0.476248,0.127 0.211666,0 0.444499,-0.04233 0.243416,-0.05292 0.423332,-0.116416 l 0.169332,0.804331 q -0.211665,0.08467 -0.550331,0.158749 -0.328082,0.0635 -0.698498,0.0635 -0.804331,0 -1.164163,-0.328082 -0.349249,-0.338666 -0.349249,-0.99483 V 10.928061 H 27.563416 V 10.12373 h 0.761997 V 8.5468181 H 29.40491 V 10.12373 h 1.418162 z"
         style="font-style:normal;font-variant:normal;font-weight:500;font-stretch:normal;font-family:Mukta;-inkscape-font-specification:'Mukta Medium';stroke-width:0.264583"
         id="path868" />
      <path
         d="m 32.050724,10.568228 q 0.486831,-0.264582 0.93133,-0.391582 0.455082,-0.137583 1.005413,-0.137583 0.423332,0 0.772581,0.09525 0.359832,0.09525 0.613832,0.306916 0.253999,0.211666 0.391582,0.571498 0.148166,0.349249 0.148166,0.857247 v 3.249073 h -0.878414 l -0.116416,-0.539748 h -0.03175 q -0.296333,0.338665 -0.687915,0.497415 -0.391582,0.148166 -0.86783,0.148166 -0.751414,0 -1.21708,-0.402165 -0.455082,-0.402166 -0.455082,-1.068913 0,-0.412749 0.169333,-0.709082 0.169333,-0.306915 0.476249,-0.507998 0.306915,-0.201083 0.730247,-0.296332 0.423332,-0.105833 0.931331,-0.105833 h 0.846664 v -0.380999 q 0,-0.476249 -0.253999,-0.656165 -0.254,-0.190499 -0.698498,-0.190499 -0.275166,0 -0.624415,0.09525 -0.338666,0.08467 -0.783164,0.328082 z m 2.772824,2.285993 -0.666748,0.01058 q -0.751414,0.02117 -1.05833,0.264583 -0.306915,0.243416 -0.306915,0.571498 0,0.211666 0.0635,0.349249 0.07408,0.137583 0.1905,0.222249 0.116416,0.08467 0.264582,0.127 0.15875,0.03175 0.317499,0.03175 0.328082,0 0.645581,-0.15875 0.328083,-0.169333 0.550332,-0.476248 z"
         style="font-style:normal;font-variant:normal;font-weight:500;font-stretch:normal;font-family:Mukta;-inkscape-font-specification:'Mukta Medium';stroke-width:0.264583"
         id="path870" />
      <path
         d="m 40.083417,10.928061 h -1.418162 v 2.698741 q 0,0.370415 0.169333,0.497415 0.179916,0.127 0.476249,0.127 0.211666,0 0.444498,-0.04233 0.243416,-0.05292 0.423332,-0.116416 L 40.348,14.896798 q -0.211666,0.08467 -0.550332,0.158749 -0.328082,0.0635 -0.698497,0.0635 -0.804331,0 -1.164163,-0.328082 -0.349249,-0.338666 -0.349249,-0.99483 V 10.928061 H 36.823761 V 10.12373 h 0.761998 V 8.5468181 h 1.079496 V 10.12373 h 1.418162 z"
         style="font-style:normal;font-variant:normal;font-weight:500;font-stretch:normal;font-family:Mukta;-inkscape-font-specification:'Mukta Medium';stroke-width:0.264583"
         id="path872" />
      <path
         d="M 41.363985,15.119047 V 10.12373 h 1.09008 v 4.995317 z m 0.550332,-6.2335633 q -0.285749,0 -0.455082,-0.1693328 -0.169333,-0.1799161 -0.169333,-0.4444986 0,-0.2645825 0.169333,-0.4339153 0.169333,-0.1799161 0.455082,-0.1799161 0.275166,0 0.444499,0.1799161 0.179916,0.1693328 0.179916,0.4339153 0,0.2751658 -0.179916,0.4444986 -0.169333,0.1693328 -0.444499,0.1693328 z"
         style="font-style:normal;font-variant:normal;font-weight:500;font-stretch:normal;font-family:Mukta;-inkscape-font-specification:'Mukta Medium';stroke-width:0.264583"
         id="path874" />
      <path
         d="m 45.057541,13.341053 v 1.777994 H 43.978044 V 7.5943211 h 1.079497 V 12.20864 l 1.894411,-2.08491 h 1.333495 l -2.010827,2.106076 2.106077,2.889241 h -1.280579 l -1.576912,-2.243659 z"
         style="font-style:normal;font-variant:normal;font-weight:500;font-stretch:normal;font-family:Mukta;-inkscape-font-specification:'Mukta Medium';stroke-width:0.264583"
         id="path876" />
      <path
         d="m 11.360436,26.706299 q 0,0.592664 -0.179916,1.068913 -0.179916,0.476248 -0.486832,0.814914 -0.306916,0.338666 -0.7196645,0.518582 -0.4127487,0.179916 -0.8784139,0.179916 -0.4868317,0 -0.8572472,-0.137583 -0.3598322,-0.137583 -0.6773312,-0.423332 h -0.021167 l -0.09525,0.465665 H 6.777867 v -7.514143 h 0.9207471 v 3.164407 q 0.3386656,-0.359832 0.740831,-0.529165 0.4127486,-0.169333 0.8572472,-0.169333 0.9524967,0 1.5028287,0.677331 0.560915,0.677331 0.560915,1.883828 z m -0.973664,0.01058 q 0,-0.825497 -0.349249,-1.312329 -0.3492486,-0.497415 -0.9842466,-0.497415 -0.4021653,0 -0.7302476,0.179916 -0.3280823,0.179916 -0.6244147,0.507998 v 2.412993 q 0.2222493,0.253999 0.4974151,0.412748 0.2857491,0.148166 0.6561645,0.148166 0.2963324,0 0.5714982,-0.105833 0.2857491,-0.105833 0.4974151,-0.328082 0.211666,-0.232832 0.338666,-0.582081 0.126999,-0.349249 0.126999,-0.836081 z"
         style="font-style:normal;font-variant:normal;font-weight:300;font-stretch:normal;font-family:Mukta;-inkscape-font-specification:'Mukta Light';stroke-width:0.264583"
         id="path878" />
      <path
         d="m 15.815995,24.219223 h 0.93133 v 4.974151 h -0.730248 l -0.126999,-0.624415 h -0.04233 q -0.275166,0.306916 -0.687915,0.518582 -0.402165,0.201083 -0.941914,0.201083 -0.77258,0 -1.259412,-0.433916 -0.476249,-0.444498 -0.476249,-1.333495 v -3.30199 h 0.931331 v 3.185573 q 0,0.317499 0.07408,0.539749 0.08467,0.222249 0.211666,0.359832 0.137583,0.126999 0.317499,0.190499 0.179916,0.05292 0.391582,0.05292 0.423332,0 0.761997,-0.179916 0.338666,-0.179916 0.645582,-0.497415 z M 13.20192,22.599978 q 0,-0.201082 0.158749,-0.359832 0.15875,-0.158749 0.370416,-0.158749 0.211666,0 0.370415,0.158749 0.15875,0.15875 0.15875,0.359832 0,0.211666 -0.15875,0.380999 -0.158749,0.15875 -0.370415,0.15875 -0.211666,0 -0.370416,-0.15875 -0.158749,-0.169333 -0.158749,-0.380999 z m 1.756827,0 q 0,-0.201082 0.15875,-0.359832 0.158749,-0.158749 0.370415,-0.158749 0.211666,0 0.370416,0.158749 0.158749,0.15875 0.158749,0.359832 0,0.211666 -0.158749,0.380999 -0.15875,0.15875 -0.370416,0.15875 -0.211666,0 -0.370415,-0.15875 -0.15875,-0.169333 -0.15875,-0.380999 z"
         style="font-style:normal;font-variant:normal;font-weight:300;font-stretch:normal;font-family:Mukta;-inkscape-font-specification:'Mukta Light';stroke-width:0.264583"
         id="path880" />
      <path
         d="m 18.165482,29.193374 v -4.974151 h 0.698498 l 0.158749,0.99483 q 0.179916,-0.476248 0.592665,-0.77258 0.412749,-0.296333 0.952497,-0.296333 0.275166,0 0.455082,0.04233 0.179916,0.04233 0.328082,0.105833 l -0.179916,0.814914 q -0.126999,-0.0635 -0.285749,-0.105833 -0.148166,-0.04233 -0.359832,-0.04233 -0.306916,0 -0.571498,0.105833 -0.254,0.105833 -0.455082,0.317499 -0.1905,0.211666 -0.306916,0.529165 -0.105833,0.306916 -0.105833,0.709081 v 2.571742 z"
         style="font-style:normal;font-variant:normal;font-weight:300;font-stretch:normal;font-family:Mukta;-inkscape-font-specification:'Mukta Light';stroke-width:0.264583"
         id="path882" />
      <path
         d="m 26.420437,26.653382 q 0,0.624415 -0.190499,1.12183 -0.1905,0.486832 -0.529165,0.825497 -0.328083,0.338666 -0.772581,0.518582 -0.444499,0.169333 -0.963081,0.169333 -0.518581,0 -0.96308,-0.15875 -0.433915,-0.169333 -0.761997,-0.486832 -0.317499,-0.328082 -0.507999,-0.793747 -0.179916,-0.476248 -0.179916,-1.09008 0,-0.624415 0.1905,-1.111246 0.190499,-0.486832 0.518581,-0.814914 0.338666,-0.338666 0.783164,-0.507999 0.444499,-0.179916 0.963081,-0.179916 0.518581,0 0.952497,0.15875 0.444498,0.158749 0.761997,0.476248 0.328082,0.317499 0.507999,0.793748 0.190499,0.465665 0.190499,1.079496 z m -0.973664,0.05292 q 0,-0.497415 -0.126999,-0.846664 -0.127,-0.349249 -0.338666,-0.571498 -0.201082,-0.22225 -0.465665,-0.317499 -0.264582,-0.105833 -0.539748,-0.105833 -0.275166,0 -0.539749,0.08467 -0.264582,0.08467 -0.465665,0.296332 -0.201082,0.211666 -0.328082,0.571498 -0.116416,0.349249 -0.116416,0.888998 0,0.497415 0.126999,0.857247 0.127,0.349249 0.328083,0.571498 0.211666,0.222249 0.476248,0.328082 0.264583,0.105833 0.539748,0.105833 0.275166,0 0.539749,-0.08467 0.264582,-0.09525 0.465665,-0.306916 0.201083,-0.222249 0.317499,-0.571498 0.126999,-0.359832 0.126999,-0.89958 z"
         style="font-style:normal;font-variant:normal;font-weight:300;font-stretch:normal;font-family:Mukta;-inkscape-font-specification:'Mukta Light';stroke-width:0.264583"
         id="path884" />
      <path
         d="m 31.775549,21.626315 q 0.296332,0 0.613831,0.08467 0.328083,0.08467 0.582082,0.211666 l -0.1905,0.645581 q -0.211666,-0.08467 -0.402165,-0.126999 -0.190499,-0.05292 -0.402165,-0.05292 -0.507999,0 -0.730248,0.285749 -0.211666,0.28575 -0.211666,0.973664 v 0.571498 h 1.513412 v 0.698498 h -1.513412 v 4.275653 h -0.920747 v -4.275653 h -0.730248 v -0.698498 h 0.730248 V 23.34081 q 0,-0.825497 0.423332,-1.269996 0.433915,-0.444498 1.238246,-0.444499 z"
         style="font-style:normal;font-variant:normal;font-weight:300;font-stretch:normal;font-family:Mukta;-inkscape-font-specification:'Mukta Light';stroke-width:0.264583"
         id="path886" />
      <path
         d="m 36.749688,24.219223 h 0.93133 v 4.974151 H 36.95077 l -0.126999,-0.624415 h -0.04233 q -0.275165,0.306916 -0.687914,0.518582 -0.402165,0.201083 -0.941914,0.201083 -0.772581,0 -1.259412,-0.433916 -0.476249,-0.444498 -0.476249,-1.333495 v -3.30199 h 0.931331 v 3.185573 q 0,0.317499 0.07408,0.539749 0.08467,0.222249 0.211666,0.359832 0.137583,0.126999 0.317499,0.190499 0.179916,0.05292 0.391582,0.05292 0.423332,0 0.761997,-0.179916 0.338666,-0.179916 0.645582,-0.497415 z m -2.614075,-1.619245 q 0,-0.201082 0.158749,-0.359832 0.15875,-0.158749 0.370416,-0.158749 0.211666,0 0.370415,0.158749 0.15875,0.15875 0.15875,0.359832 0,0.211666 -0.15875,0.380999 -0.158749,0.15875 -0.370415,0.15875 -0.211666,0 -0.370416,-0.15875 -0.158749,-0.169333 -0.158749,-0.380999 z m 1.756827,0 q 0,-0.201082 0.15875,-0.359832 0.158749,-0.158749 0.370415,-0.158749 0.211666,0 0.370416,0.158749 0.158749,0.15875 0.158749,0.359832 0,0.211666 -0.158749,0.380999 -0.15875,0.15875 -0.370416,0.15875 -0.211666,0 -0.370415,-0.15875 -0.15875,-0.169333 -0.15875,-0.380999 z"
         style="font-style:normal;font-variant:normal;font-weight:300;font-stretch:normal;font-family:Mukta;-inkscape-font-specification:'Mukta Light';stroke-width:0.264583"
         id="path888" />
      <path
         d="m 39.099175,29.193374 v -4.974151 h 0.698498 l 0.158749,0.99483 q 0.179916,-0.476248 0.592665,-0.77258 0.412749,-0.296333 0.952497,-0.296333 0.275166,0 0.455082,0.04233 0.179916,0.04233 0.328082,0.105833 l -0.179916,0.814914 q -0.127,-0.0635 -0.285749,-0.105833 -0.148166,-0.04233 -0.359832,-0.04233 -0.306916,0 -0.571498,0.105833 -0.254,0.105833 -0.455082,0.317499 -0.1905,0.211666 -0.306916,0.529165 -0.105833,0.306916 -0.105833,0.709081 v 2.571742 z"
         style="font-style:normal;font-variant:normal;font-weight:300;font-stretch:normal;font-family:Mukta;-inkscape-font-specification:'Mukta Light';stroke-width:0.264583"
         id="path890" />
      <path
         d="M 9.3813587,38.992048 H 7.9208634 v 2.889241 q 0,0.370415 0.1799161,0.497415 0.1904994,0.126999 0.4868318,0.126999 0.2116659,0 0.4656651,-0.04233 0.2539992,-0.05292 0.4444986,-0.116416 l 0.1481662,0.709081 q -0.211666,0.08467 -0.5397483,0.148166 -0.3280823,0.0635 -0.6879144,0.0635 -0.740831,0 -1.0794966,-0.317499 Q 7.0001163,42.62212 7.0001163,42.008288 v -3.01624 H 6.2592853 V 38.29355 h 0.740831 v -1.587495 h 0.9207471 v 1.587495 h 1.4604953 z"
         style="font-style:normal;font-variant:normal;font-weight:300;font-stretch:normal;font-family:Mukta;-inkscape-font-specification:'Mukta Light';stroke-width:0.264583"
         id="path892" />
      <path
         d="M 10.598421,43.267701 V 38.29355 h 0.698498 l 0.15875,0.99483 q 0.179916,-0.476248 0.592664,-0.772581 0.412749,-0.296332 0.952497,-0.296332 0.275166,0 0.455082,0.04233 0.179916,0.04233 0.328083,0.105833 l -0.179917,0.814914 q -0.126999,-0.0635 -0.285749,-0.105833 -0.148166,-0.04233 -0.359832,-0.04233 -0.306916,0 -0.571498,0.105833 -0.253999,0.105833 -0.455082,0.317499 -0.190499,0.211666 -0.306916,0.529165 -0.105833,0.306916 -0.105833,0.709081 v 2.571742 z"
         style="font-style:normal;font-variant:normal;font-weight:300;font-stretch:normal;font-family:Mukta;-inkscape-font-specification:'Mukta Light';stroke-width:0.264583"
         id="path894" />
      <path
         d="m 14.450726,38.738049 q 0.253999,-0.127 0.476248,-0.22225 0.22225,-0.105833 0.444499,-0.169332 0.222249,-0.0635 0.455082,-0.09525 0.232832,-0.03175 0.507998,-0.03175 0.412749,0 0.751414,0.09525 0.349249,0.08467 0.592665,0.296332 0.253999,0.211666 0.391582,0.560915 0.137583,0.338666 0.137583,0.857247 v 3.23849 H 17.435216 L 17.3188,42.717369 h -0.02117 q -0.328082,0.349249 -0.719664,0.497415 -0.391582,0.148167 -0.867831,0.148167 -0.359832,0 -0.666747,-0.09525 -0.296333,-0.105833 -0.518582,-0.285749 -0.222249,-0.1905 -0.349249,-0.455082 -0.116416,-0.264582 -0.116416,-0.592665 0,-0.783164 0.613831,-1.185329 0.624415,-0.412749 1.640412,-0.412749 h 0.952497 v -0.423332 q 0,-0.539748 -0.275166,-0.730248 -0.275166,-0.201082 -0.740831,-0.201082 -0.275166,0 -0.634998,0.09525 -0.349249,0.08467 -0.804331,0.338666 z m 2.825741,2.233076 -0.783164,0.02117 q -0.793748,0.02117 -1.132413,0.285749 -0.328083,0.253999 -0.328083,0.624414 0,0.22225 0.07408,0.380999 0.07408,0.148166 0.1905,0.232833 0.126999,0.08467 0.285749,0.126999 0.169333,0.03175 0.349249,0.03175 0.349249,0 0.709081,-0.158749 0.359832,-0.169333 0.634998,-0.529165 z"
         style="font-style:normal;font-variant:normal;font-weight:300;font-stretch:normal;font-family:Mukta;-inkscape-font-specification:'Mukta Light';stroke-width:0.264583"
         id="path896" />
      <path
         d="m 19.498943,39.944545 q 0,-0.412749 0.148166,-0.730248 0.148166,-0.328082 0.412749,-0.550331 0.275166,-0.22225 0.645581,-0.328083 0.370416,-0.116416 0.804331,-0.116416 0.158749,0 0.306916,0.02117 0.148166,0.02117 0.296332,0.05292 h 2.14841 v 0.687915 h -0.328083 l -0.846664,-0.116417 q 0.201083,0.211666 0.306916,0.486832 0.116416,0.275166 0.116416,0.582082 0,0.412748 -0.148166,0.740831 -0.148166,0.317499 -0.412748,0.539748 -0.264583,0.222249 -0.634998,0.338665 -0.370416,0.105833 -0.804331,0.105833 -0.328082,0 -0.571498,-0.04233 -0.243416,0.08467 -0.338666,0.22225 -0.09525,0.126999 -0.09525,0.275165 0,0.243416 0.15875,0.328083 0.169333,0.08467 0.444498,0.08467 h 1.31233 q 0.825497,0 1.259412,0.380999 0.444499,0.370415 0.444499,1.015997 0,0.412748 -0.179916,0.740831 -0.179916,0.328082 -0.518582,0.560914 -0.328082,0.232833 -0.804331,0.349249 -0.476248,0.127 -1.068913,0.127 -1.079497,0 -1.725078,-0.391582 -0.634998,-0.380999 -0.634998,-1.132413 0,-0.391582 0.243416,-0.656165 0.253999,-0.264582 0.656165,-0.402165 -0.211666,-0.148166 -0.317499,-0.306916 -0.105833,-0.169333 -0.105833,-0.444498 0,-0.328083 0.190499,-0.560915 0.201083,-0.232833 0.539748,-0.370416 -0.423332,-0.190499 -0.666748,-0.550331 -0.232832,-0.370416 -0.232832,-0.941914 z m 1.132413,3.323156 q -0.539748,0.243416 -0.539748,0.761998 0,0.93133 1.502828,0.93133 0.444499,0 0.751414,-0.08467 0.306916,-0.08467 0.497416,-0.22225 0.190499,-0.137583 0.275165,-0.306915 0.09525,-0.169333 0.09525,-0.349249 0,-0.444499 -0.306916,-0.592665 -0.296332,-0.137583 -0.751414,-0.137583 z m 1.936744,-3.30199 q 0,-0.560914 -0.296333,-0.825497 -0.285749,-0.264582 -0.761997,-0.264582 -0.476249,0 -0.772581,0.264582 -0.285749,0.264583 -0.285749,0.783164 0,0.550332 0.285749,0.814914 0.296332,0.254 0.772581,0.254 0.476248,0 0.761997,-0.254 0.296333,-0.253999 0.296333,-0.772581 z"
         style="font-style:normal;font-variant:normal;font-weight:300;font-stretch:normal;font-family:Mukta;-inkscape-font-specification:'Mukta Light';stroke-width:0.264583"
         id="path898" />
      <path
         d="m 24.695328,38.29355 h 0.99483 l 0.846664,3.132657 0.190499,1.111246 h 0.04233 l 0.232833,-1.111246 0.857247,-3.132657 h 1.005414 l 0.878414,3.132657 0.222249,1.111246 h 0.04233 l 0.232833,-1.111246 0.825497,-3.132657 h 0.952497 l -1.513412,4.974151 h -1.05833 l -0.846664,-3.04799 -0.243416,-1.227663 -0.253999,1.227663 -0.86783,3.04799 H 26.2299 Z"
         style="font-style:normal;font-variant:normal;font-weight:300;font-stretch:normal;font-family:Mukta;-inkscape-font-specification:'Mukta Light';stroke-width:0.264583"
         id="path900" />
      <path
         d="m 37.014275,40.886459 h -3.566572 v 0.04233 q 0,0.825497 0.444499,1.269996 0.455082,0.444498 1.227663,0.444498 0.402165,0 0.709081,-0.0635 0.317499,-0.0635 0.687914,-0.211665 l 0.1905,0.687914 q -0.306916,0.137583 -0.730248,0.222249 -0.412749,0.08467 -0.888997,0.08467 -0.539748,0 -1.015997,-0.148167 -0.465665,-0.148166 -0.825497,-0.455081 -0.359832,-0.317499 -0.571498,-0.804331 -0.201083,-0.486832 -0.201083,-1.164163 0,-0.582082 0.169333,-1.05833 0.179916,-0.476249 0.497415,-0.804331 0.317499,-0.338665 0.761997,-0.518582 0.455082,-0.190499 1.015997,-0.190499 0.476249,0 0.857247,0.15875 0.391582,0.158749 0.666748,0.444498 0.275166,0.285749 0.423332,0.687915 0.148166,0.402165 0.148166,0.888997 z m -0.96308,-0.666748 q 0,-0.275166 -0.07408,-0.507999 -0.0635,-0.243416 -0.211666,-0.423332 -0.137583,-0.179916 -0.359832,-0.285749 -0.222249,-0.105833 -0.539748,-0.105833 -0.582082,0 -0.952497,0.370416 -0.359833,0.370415 -0.444499,0.973663 z"
         style="font-style:normal;font-variant:normal;font-weight:300;font-stretch:normal;font-family:Mukta;-inkscape-font-specification:'Mukta Light';stroke-width:0.264583"
         id="path902" />
      <path
         d="M 38.09377,43.267701 V 38.29355 h 0.698497 l 0.15875,0.99483 q 0.179916,-0.476248 0.592665,-0.772581 0.412748,-0.296332 0.952497,-0.296332 0.275165,0 0.455081,0.04233 0.179917,0.04233 0.328083,0.105833 l -0.179916,0.814914 q -0.127,-0.0635 -0.285749,-0.105833 -0.148167,-0.04233 -0.359833,-0.04233 -0.306915,0 -0.571498,0.105833 -0.253999,0.105833 -0.455082,0.317499 -0.190499,0.211666 -0.306915,0.529165 -0.105833,0.306916 -0.105833,0.709081 v 2.571742 z"
         style="font-style:normal;font-variant:normal;font-weight:300;font-stretch:normal;font-family:Mukta;-inkscape-font-specification:'Mukta Light';stroke-width:0.264583"
         id="path904" />
      <path
         d="m 42.983252,41.447373 v 1.820328 h -0.920748 v -7.514143 h 0.920748 v 4.677819 l 2.000243,-2.137827 h 1.15358 l -2.042577,2.095493 2.137827,2.878658 h -1.100664 l -1.650994,-2.317743 z"
         style="font-style:normal;font-variant:normal;font-weight:300;font-stretch:normal;font-family:Mukta;-inkscape-font-specification:'Mukta Light';stroke-width:0.264583"
         id="path906" />
      <path
         d="m 49.788303,39.224881 q -0.349249,-0.169333 -0.634998,-0.232833 -0.285749,-0.0635 -0.571498,-0.0635 -0.507999,0 -0.751415,0.1905 -0.243416,0.179916 -0.243416,0.486831 0,0.22225 0.169333,0.391582 0.169333,0.15875 0.709081,0.317499 l 0.317499,0.09525 q 0.709081,0.211666 1.068914,0.550332 0.370415,0.328082 0.370415,0.89958 0,0.677331 -0.507998,1.09008 -0.497415,0.412749 -1.396996,0.412749 -0.476248,0 -0.920747,-0.08467 -0.433915,-0.08467 -0.751414,-0.232832 l 0.222249,-0.730248 q 0.306916,0.148166 0.666748,0.243416 0.359832,0.08467 0.730248,0.08467 0.476248,0 0.751414,-0.169332 0.285749,-0.169333 0.285749,-0.560915 0,-0.338666 -0.243416,-0.476249 -0.243416,-0.148166 -0.698498,-0.285749 l -0.328082,-0.105833 q -0.687915,-0.222249 -1.02658,-0.550332 -0.328082,-0.338665 -0.328082,-0.86783 0,-0.317499 0.137583,-0.582082 0.137582,-0.264582 0.370415,-0.444498 0.243416,-0.179916 0.571498,-0.275166 0.328082,-0.105833 0.719665,-0.105833 0.370415,0 0.761997,0.07408 0.402166,0.0635 0.761998,0.222249 z"
         style="font-style:normal;font-variant:normal;font-weight:300;font-stretch:normal;font-family:Mukta;-inkscape-font-specification:'Mukta Light';stroke-width:0.264583"
         id="path908" />
      <path
         d="m 8.8310271,57.437278 q -0.3386655,0 -0.6561645,-0.09525 -0.3069157,-0.09525 -0.529165,-0.253999 v 2.688158 H 6.7249505 v -7.482393 h 0.7725809 l 0.1375829,0.645581 q 0.2857491,-0.264582 0.6455813,-0.455082 0.3598322,-0.190499 0.8466639,-0.190499 0.9948305,0 1.5663285,0.634998 0.571498,0.634998 0.571498,1.820327 0,0.698498 -0.211666,1.206497 -0.201083,0.507998 -0.550332,0.83608 -0.338665,0.328083 -0.7831637,0.486832 -0.4339153,0.15875 -0.8889972,0.15875 z m 0.09525,-4.381486 q -0.4444985,0 -0.7725808,0.222249 -0.3280823,0.211666 -0.5079984,0.433915 v 2.656408 q 0.2434159,0.179916 0.5185817,0.264583 0.2751658,0.08467 0.5503316,0.08467 0.285749,0 0.5714981,-0.09525 0.2857491,-0.105833 0.5079984,-0.338666 0.2222493,-0.232833 0.3598323,-0.603248 0.137582,-0.370416 0.137582,-0.910164 0,-0.793747 -0.3386648,-1.248829 -0.3280823,-0.465665 -1.0265801,-0.465665 z"
         style="font-style:normal;font-variant:normal;font-weight:300;font-stretch:normal;font-family:Mukta;-inkscape-font-specification:'Mukta Light';stroke-width:0.264583"
         id="path910" />
      <path
         d="m 12.42933,57.342028 v -7.514143 h 0.910164 v 7.514143 z"
         style="font-style:normal;font-variant:normal;font-weight:300;font-stretch:normal;font-family:Mukta;-inkscape-font-specification:'Mukta Light';stroke-width:0.264583"
         id="path912" />
      <path
         d="m 14.874068,52.812376 q 0.253999,-0.127 0.476248,-0.22225 0.222249,-0.105833 0.444499,-0.169332 0.222249,-0.0635 0.455082,-0.09525 0.232832,-0.03175 0.507998,-0.03175 0.412749,0 0.751414,0.09525 0.349249,0.08467 0.592665,0.296332 0.253999,0.211666 0.391582,0.560915 0.137583,0.338666 0.137583,0.857247 v 3.23849 h -0.772581 l -0.116416,-0.550332 h -0.02117 q -0.328082,0.349249 -0.719664,0.497415 -0.391582,0.148167 -0.867831,0.148167 -0.359832,0 -0.666748,-0.09525 -0.296332,-0.105833 -0.518581,-0.285749 -0.22225,-0.1905 -0.349249,-0.455082 -0.116417,-0.264583 -0.116417,-0.592665 0,-0.783164 0.613832,-1.185329 0.624415,-0.412749 1.640411,-0.412749 h 0.952497 v -0.423332 q 0,-0.539748 -0.275166,-0.730248 -0.275165,-0.201082 -0.740831,-0.201082 -0.275165,0 -0.634997,0.09525 -0.349249,0.08467 -0.804331,0.338666 z m 2.825741,2.233076 -0.783165,0.02117 q -0.793747,0.02117 -1.132413,0.28575 -0.328082,0.253999 -0.328082,0.624414 0,0.22225 0.07408,0.380999 0.07408,0.148166 0.1905,0.232833 0.126999,0.08467 0.285749,0.126999 0.169332,0.03175 0.349249,0.03175 0.349248,0 0.709081,-0.158749 0.359832,-0.169333 0.634998,-0.529165 z"
         style="font-style:normal;font-variant:normal;font-weight:300;font-stretch:normal;font-family:Mukta;-inkscape-font-specification:'Mukta Light';stroke-width:0.264583"
         id="path914" />
      <path
         d="m 20.927698,57.342028 h -0.93133 v -4.974151 h 0.730247 l 0.137583,0.687915 q 0.370416,-0.370416 0.772581,-0.560915 0.412749,-0.201083 0.941914,-0.201083 0.761997,0 1.195913,0.433915 0.433915,0.423332 0.433915,1.18533 v 3.428989 h -0.93133 v -3.291406 q 0,-0.455082 -0.243416,-0.719665 -0.232833,-0.275165 -0.719665,-0.275165 -0.740831,0 -1.386412,0.666747 z"
         style="font-style:normal;font-variant:normal;font-weight:300;font-stretch:normal;font-family:Mukta;-inkscape-font-specification:'Mukta Light';stroke-width:0.264583"
         id="path916" />
      <path
         d="m 28.981573,52.367877 h 0.931331 v 4.974151 h -0.730248 l -0.126999,-0.624415 h -0.04233 q -0.275165,0.306916 -0.687914,0.518582 -0.402165,0.201083 -0.941914,0.201083 -0.772581,0 -1.259412,-0.433916 -0.476249,-0.444498 -0.476249,-1.333495 v -3.30199 h 0.93133 v 3.185573 q 0,0.317499 0.07408,0.539749 0.08467,0.222249 0.211666,0.359832 0.137582,0.126999 0.317499,0.190499 0.179916,0.05292 0.391582,0.05292 0.423332,0 0.761997,-0.179916 0.338666,-0.179917 0.645581,-0.497416 z"
         style="font-style:normal;font-variant:normal;font-weight:300;font-stretch:normal;font-family:Mukta;-inkscape-font-specification:'Mukta Light';stroke-width:0.264583"
         id="path918" />
      <path
         d="m 32.283558,57.342028 h -0.931331 v -4.974151 h 0.730248 l 0.137583,0.687915 q 0.370416,-0.370416 0.772581,-0.560915 0.412749,-0.201083 0.941914,-0.201083 0.761997,0 1.195912,0.433915 0.433916,0.423332 0.433916,1.18533 v 3.428989 H 34.63305 v -3.291406 q 0,-0.455082 -0.243416,-0.719665 -0.232832,-0.275165 -0.719664,-0.275165 -0.740831,0 -1.386412,0.666747 z"
         style="font-style:normal;font-variant:normal;font-weight:300;font-stretch:normal;font-family:Mukta;-inkscape-font-specification:'Mukta Light';stroke-width:0.264583"
         id="path920" />
      <path
         d="m 36.876684,54.018872 q 0,-0.412749 0.148166,-0.730248 0.148166,-0.328082 0.412749,-0.550331 0.275165,-0.22225 0.645581,-0.328083 0.370415,-0.116416 0.804331,-0.116416 0.158749,0 0.306915,0.02117 0.148167,0.02117 0.296333,0.05292 h 2.14841 v 0.687915 h -0.328083 l -0.846664,-0.116417 q 0.201083,0.211666 0.306916,0.486832 0.116416,0.275166 0.116416,0.582081 0,0.412749 -0.148166,0.740831 -0.148166,0.317499 -0.412749,0.539749 -0.264582,0.222249 -0.634998,0.338665 -0.370415,0.105833 -0.80433,0.105833 -0.328083,0 -0.571499,-0.04233 -0.243415,0.08467 -0.338665,0.222249 -0.09525,0.127 -0.09525,0.275166 0,0.243416 0.15875,0.328083 0.169332,0.08467 0.444498,0.08467 h 1.312329 q 0.825498,0 1.259413,0.380999 0.444499,0.370415 0.444499,1.015996 0,0.412749 -0.179916,0.740831 -0.179917,0.328083 -0.518582,0.560915 -0.328082,0.232833 -0.804331,0.349249 -0.476248,0.127 -1.068913,0.127 -1.079497,0 -1.725078,-0.391582 -0.634998,-0.380999 -0.634998,-1.132413 0,-0.391582 0.243416,-0.656165 0.253999,-0.264582 0.656165,-0.402165 -0.211666,-0.148167 -0.317499,-0.306916 -0.105833,-0.169333 -0.105833,-0.444499 0,-0.328082 0.190499,-0.560914 0.201083,-0.232833 0.539748,-0.370416 -0.423332,-0.190499 -0.666748,-0.550332 -0.232832,-0.370415 -0.232832,-0.941913 z m 1.132413,3.323156 q -0.539748,0.243416 -0.539748,0.761997 0,0.931331 1.502828,0.931331 0.444499,0 0.751414,-0.08467 0.306916,-0.08467 0.497415,-0.222249 0.1905,-0.137583 0.275166,-0.306916 0.09525,-0.169332 0.09525,-0.349248 0,-0.444499 -0.306916,-0.592665 -0.296332,-0.137583 -0.751414,-0.137583 z m 1.936744,-3.30199 q 0,-0.560914 -0.296333,-0.825497 -0.285749,-0.264582 -0.761997,-0.264582 -0.476249,0 -0.772581,0.264582 -0.285749,0.264583 -0.285749,0.783164 0,0.550332 0.285749,0.814914 0.296332,0.253999 0.772581,0.253999 0.476248,0 0.761997,-0.253999 0.296333,-0.253999 0.296333,-0.772581 z"
         style="font-style:normal;font-variant:normal;font-weight:300;font-stretch:normal;font-family:Mukta;-inkscape-font-specification:'Mukta Light';stroke-width:0.264583"
         id="path922" />
    </g>
  </g>
</svg>
